<?xml version="1.0" encoding="utf-8"?>
<!-- Generator: Adobe Illustrator 16.2.1, SVG Export Plug-In . SVG Version: 6.00 Build 0)  -->
<!DOCTYPE svg PUBLIC "-//W3C//DTD SVG 1.1//EN" "http://www.w3.org/Graphics/SVG/1.1/DTD/svg11.dtd">
<svg version="1.1" id="Layer_1" xmlns="http://www.w3.org/2000/svg" xmlns:xlink="http://www.w3.org/1999/xlink" x="0px" y="0px"
	 width="35px" height="35px" viewBox="0 0 35 35" enable-background="new 0 0 35 35" xml:space="preserve">
<path fill="#5E5F5F" d="M0,17.5C0,7.851,7.851,0,17.5,0S35,7.851,35,17.5C35,27.149,27.149,35,17.5,35S0,27.149,0,17.5z M3,17.5
	C3,25.495,9.505,32,17.5,32S32,25.495,32,17.5C32,9.505,25.495,3,17.5,3S3,9.505,3,17.5z"/>
<polygon fill="#5E5F5F" points="26.74,17.5 19.949,13.58 13.16,9.66 13.16,17.5 13.16,25.34 19.949,21.42 "/>
</svg>
